<mxfile host="app.diagrams.net" modified="2024-06-19T15:30:34.946Z" agent="Mozilla/5.0 (X11; Linux x86_64) AppleWebKit/537.36 (KHTML, like Gecko) Chrome/126.0.0.0 Safari/537.36" etag="2UuhVgzSfFxnPg5jdhs8" version="24.5.5" type="github">
  <diagram name="Page-1" id="rsjz5suLUUrzKHTADZAI">
    <mxGraphModel dx="1912" dy="1040" grid="1" gridSize="10" guides="1" tooltips="1" connect="1" arrows="1" fold="1" page="1" pageScale="1" pageWidth="827" pageHeight="1169" math="0" shadow="0">
      <root>
        <mxCell id="0" />
        <mxCell id="1" parent="0" />
        <mxCell id="txctGyOCD1CNv80oOnHS-2" value="" style="rounded=0;whiteSpace=wrap;html=1;fillColor=#818A91;strokeColor=#23445d;fillStyle=auto;" parent="1" vertex="1">
          <mxGeometry x="185" y="70" width="780" height="1010" as="geometry" />
        </mxCell>
        <mxCell id="txctGyOCD1CNv80oOnHS-3" value="&lt;font style=&quot;font-size: 20px;&quot;&gt;ARCADIA&lt;/font&gt;" style="text;fillColor=#fad7ac;html=1;fontSize=24;fontStyle=5;verticalAlign=middle;align=center;strokeColor=#b46504;gradientColor=#33FF33;" parent="1" vertex="1">
          <mxGeometry x="820" y="80" width="100" height="40" as="geometry" />
        </mxCell>
        <mxCell id="txctGyOCD1CNv80oOnHS-36" style="rounded=0;orthogonalLoop=1;jettySize=auto;html=1;entryX=0;entryY=0.5;entryDx=0;entryDy=0;strokeWidth=2;fillColor=#f8cecc;gradientColor=#ea6b66;strokeColor=#b85450;" parent="1" source="txctGyOCD1CNv80oOnHS-8" target="txctGyOCD1CNv80oOnHS-22" edge="1">
          <mxGeometry relative="1" as="geometry" />
        </mxCell>
        <mxCell id="txctGyOCD1CNv80oOnHS-107" style="rounded=0;orthogonalLoop=1;jettySize=auto;html=1;dashed=1;fillColor=#f8cecc;gradientColor=#ea6b66;strokeColor=#b85450;strokeWidth=2;" parent="1" source="txctGyOCD1CNv80oOnHS-8" target="txctGyOCD1CNv80oOnHS-19" edge="1">
          <mxGeometry relative="1" as="geometry" />
        </mxCell>
        <mxCell id="txctGyOCD1CNv80oOnHS-110" value="&amp;lt;&amp;lt;Modifier&amp;gt;&amp;gt;" style="edgeLabel;html=1;align=center;verticalAlign=middle;resizable=0;points=[];" parent="txctGyOCD1CNv80oOnHS-107" vertex="1" connectable="0">
          <mxGeometry x="0.0186" y="1" relative="1" as="geometry">
            <mxPoint as="offset" />
          </mxGeometry>
        </mxCell>
        <mxCell id="aKgSQbWeLLbsCAJ8le8e-22" style="rounded=0;orthogonalLoop=1;jettySize=auto;html=1;endArrow=none;endFill=0;fillColor=#f8cecc;gradientColor=#ea6b66;strokeColor=#b85450;strokeWidth=2;" edge="1" parent="1" source="txctGyOCD1CNv80oOnHS-8" target="txctGyOCD1CNv80oOnHS-54">
          <mxGeometry relative="1" as="geometry" />
        </mxCell>
        <mxCell id="txctGyOCD1CNv80oOnHS-8" value="&lt;span style=&quot;background-color: rgb(77, 77, 77);&quot;&gt;Administrateur&lt;/span&gt;" style="shape=umlActor;verticalLabelPosition=bottom;verticalAlign=top;html=1;outlineConnect=0;fillColor=#FF6A59;strokeColor=#A50040;fontColor=#ffffff;" parent="1" vertex="1">
          <mxGeometry x="80" y="585" width="30" height="60" as="geometry" />
        </mxCell>
        <mxCell id="txctGyOCD1CNv80oOnHS-34" style="rounded=0;orthogonalLoop=1;jettySize=auto;html=1;entryX=1;entryY=1;entryDx=0;entryDy=0;strokeWidth=2;fillColor=#1ba1e2;strokeColor=#006EAF;" parent="1" source="txctGyOCD1CNv80oOnHS-9" target="txctGyOCD1CNv80oOnHS-22" edge="1">
          <mxGeometry relative="1" as="geometry" />
        </mxCell>
        <mxCell id="txctGyOCD1CNv80oOnHS-97" style="rounded=0;orthogonalLoop=1;jettySize=auto;html=1;dashed=1;endArrow=classicThin;endFill=1;strokeWidth=2;fillColor=#1ba1e2;strokeColor=#006EAF;" parent="1" source="txctGyOCD1CNv80oOnHS-9" target="txctGyOCD1CNv80oOnHS-62" edge="1">
          <mxGeometry relative="1" as="geometry" />
        </mxCell>
        <mxCell id="txctGyOCD1CNv80oOnHS-98" value="&amp;lt;&amp;lt;validation et/ou non publication&amp;gt;&amp;gt;&amp;nbsp;" style="edgeLabel;html=1;align=center;verticalAlign=middle;resizable=0;points=[];" parent="txctGyOCD1CNv80oOnHS-97" vertex="1" connectable="0">
          <mxGeometry x="0.0179" y="1" relative="1" as="geometry">
            <mxPoint as="offset" />
          </mxGeometry>
        </mxCell>
        <mxCell id="txctGyOCD1CNv80oOnHS-99" style="rounded=0;orthogonalLoop=1;jettySize=auto;html=1;dashed=1;endArrow=classicThin;endFill=1;fillColor=#1ba1e2;strokeColor=#006EAF;strokeWidth=2;" parent="1" source="txctGyOCD1CNv80oOnHS-9" target="txctGyOCD1CNv80oOnHS-51" edge="1">
          <mxGeometry relative="1" as="geometry" />
        </mxCell>
        <mxCell id="txctGyOCD1CNv80oOnHS-101" value="&amp;lt;&amp;lt; consultation et réponse mail&amp;gt;&amp;gt;" style="edgeLabel;html=1;align=center;verticalAlign=middle;resizable=0;points=[];" parent="txctGyOCD1CNv80oOnHS-99" vertex="1" connectable="0">
          <mxGeometry x="0.6015" y="-1" relative="1" as="geometry">
            <mxPoint as="offset" />
          </mxGeometry>
        </mxCell>
        <mxCell id="txctGyOCD1CNv80oOnHS-102" style="rounded=0;orthogonalLoop=1;jettySize=auto;html=1;dashed=1;entryX=0.98;entryY=0.555;entryDx=0;entryDy=0;entryPerimeter=0;fillColor=#1ba1e2;strokeColor=#006EAF;strokeWidth=2;" parent="1" target="txctGyOCD1CNv80oOnHS-19" edge="1">
          <mxGeometry relative="1" as="geometry">
            <mxPoint x="429.7667721490718" y="493.43186996086206" as="targetPoint" />
            <mxPoint x="1150" y="770" as="sourcePoint" />
          </mxGeometry>
        </mxCell>
        <mxCell id="txctGyOCD1CNv80oOnHS-103" value="&amp;lt;&amp;lt;modifier &amp;gt;&amp;gt;" style="edgeLabel;html=1;align=center;verticalAlign=middle;resizable=0;points=[];" parent="txctGyOCD1CNv80oOnHS-102" vertex="1" connectable="0">
          <mxGeometry x="-0.2614" y="1" relative="1" as="geometry">
            <mxPoint as="offset" />
          </mxGeometry>
        </mxCell>
        <mxCell id="txctGyOCD1CNv80oOnHS-9" value="&lt;span style=&quot;background-color: rgb(77, 77, 77);&quot;&gt;Employé&lt;/span&gt;" style="shape=umlActor;verticalLabelPosition=bottom;verticalAlign=top;html=1;outlineConnect=0;fillColor=#0050ef;strokeColor=#001DBC;fontColor=#ffffff;" parent="1" vertex="1">
          <mxGeometry x="1150" y="740" width="30" height="60" as="geometry" />
        </mxCell>
        <mxCell id="txctGyOCD1CNv80oOnHS-17" style="rounded=0;orthogonalLoop=1;jettySize=auto;html=1;endArrow=none;endFill=0;strokeWidth=2;fillColor=#a0522d;strokeColor=#6D1F00;" parent="1" source="txctGyOCD1CNv80oOnHS-10" target="txctGyOCD1CNv80oOnHS-16" edge="1">
          <mxGeometry relative="1" as="geometry" />
        </mxCell>
        <mxCell id="txctGyOCD1CNv80oOnHS-61" style="rounded=0;orthogonalLoop=1;jettySize=auto;html=1;endArrow=none;endFill=0;fillColor=#a0522d;strokeColor=#6D1F00;strokeWidth=2;" parent="1" source="txctGyOCD1CNv80oOnHS-10" target="txctGyOCD1CNv80oOnHS-60" edge="1">
          <mxGeometry relative="1" as="geometry" />
        </mxCell>
        <mxCell id="txctGyOCD1CNv80oOnHS-10" value="&lt;span style=&quot;background-color: rgb(77, 77, 77);&quot;&gt;Visiteur&lt;/span&gt;" style="shape=umlActor;verticalLabelPosition=bottom;verticalAlign=top;html=1;outlineConnect=0;fillColor=#a0522d;strokeColor=#6D1F00;fontColor=#ffffff;" parent="1" vertex="1">
          <mxGeometry x="560" y="1120" width="30" height="60" as="geometry" />
        </mxCell>
        <mxCell id="txctGyOCD1CNv80oOnHS-76" style="rounded=0;orthogonalLoop=1;jettySize=auto;html=1;entryX=1;entryY=0.5;entryDx=0;entryDy=0;endArrow=none;endFill=0;fillColor=#008a00;strokeColor=#005700;strokeWidth=2;" parent="1" source="txctGyOCD1CNv80oOnHS-11" target="txctGyOCD1CNv80oOnHS-75" edge="1">
          <mxGeometry relative="1" as="geometry" />
        </mxCell>
        <mxCell id="aKgSQbWeLLbsCAJ8le8e-19" style="rounded=0;orthogonalLoop=1;jettySize=auto;html=1;entryX=1;entryY=0;entryDx=0;entryDy=0;endArrow=classicThin;endFill=1;dashed=1;fillColor=#008a00;strokeColor=#005700;strokeWidth=2;" edge="1" parent="1" source="txctGyOCD1CNv80oOnHS-11" target="aKgSQbWeLLbsCAJ8le8e-8">
          <mxGeometry relative="1" as="geometry" />
        </mxCell>
        <mxCell id="aKgSQbWeLLbsCAJ8le8e-20" value="&amp;lt;&amp;lt;consulter&amp;gt;&amp;gt;" style="edgeLabel;html=1;align=center;verticalAlign=middle;resizable=0;points=[];" vertex="1" connectable="0" parent="aKgSQbWeLLbsCAJ8le8e-19">
          <mxGeometry x="-0.0009" relative="1" as="geometry">
            <mxPoint as="offset" />
          </mxGeometry>
        </mxCell>
        <mxCell id="txctGyOCD1CNv80oOnHS-11" value="&lt;span style=&quot;background-color: rgb(77, 77, 77);&quot;&gt;Vétérinaire&lt;/span&gt;" style="shape=umlActor;verticalLabelPosition=bottom;verticalAlign=top;html=1;outlineConnect=0;fillColor=#008a00;strokeColor=#005700;fontColor=#ffffff;" parent="1" vertex="1">
          <mxGeometry x="1040" y="240" width="30" height="60" as="geometry" />
        </mxCell>
        <mxCell id="txctGyOCD1CNv80oOnHS-14" value="&lt;font style=&quot;font-size: 8px;&quot;&gt;user name/mdp&lt;/font&gt;" style="ellipse;whiteSpace=wrap;html=1;" parent="1" vertex="1">
          <mxGeometry x="440" y="410" width="50" height="40" as="geometry" />
        </mxCell>
        <mxCell id="txctGyOCD1CNv80oOnHS-23" value="" style="rounded=0;orthogonalLoop=1;jettySize=auto;html=1;endArrow=none;endFill=0;strokeWidth=2;fillColor=#a0522d;strokeColor=#6D1F00;" parent="1" source="txctGyOCD1CNv80oOnHS-16" target="txctGyOCD1CNv80oOnHS-20" edge="1">
          <mxGeometry relative="1" as="geometry" />
        </mxCell>
        <mxCell id="txctGyOCD1CNv80oOnHS-24" style="rounded=0;orthogonalLoop=1;jettySize=auto;html=1;endArrow=none;endFill=0;fillColor=#a0522d;strokeColor=#6D1F00;strokeWidth=2;" parent="1" source="txctGyOCD1CNv80oOnHS-16" target="txctGyOCD1CNv80oOnHS-18" edge="1">
          <mxGeometry relative="1" as="geometry" />
        </mxCell>
        <mxCell id="txctGyOCD1CNv80oOnHS-16" value="menu" style="ellipse;whiteSpace=wrap;html=1;fillColor=#d5e8d4;gradientColor=#97d077;strokeColor=#82b366;" parent="1" vertex="1">
          <mxGeometry x="320" y="990" width="80" height="60" as="geometry" />
        </mxCell>
        <mxCell id="txctGyOCD1CNv80oOnHS-18" value="Retour vers la page d’accueil" style="ellipse;whiteSpace=wrap;html=1;" parent="1" vertex="1">
          <mxGeometry x="200" y="1010" width="80" height="60" as="geometry" />
        </mxCell>
        <mxCell id="txctGyOCD1CNv80oOnHS-47" style="rounded=0;orthogonalLoop=1;jettySize=auto;html=1;endArrow=none;endFill=0;fillColor=#a0522d;strokeColor=#6D1F00;" parent="1" source="txctGyOCD1CNv80oOnHS-19" target="txctGyOCD1CNv80oOnHS-43" edge="1">
          <mxGeometry relative="1" as="geometry" />
        </mxCell>
        <mxCell id="txctGyOCD1CNv80oOnHS-48" style="rounded=0;orthogonalLoop=1;jettySize=auto;html=1;endArrow=none;endFill=0;fillColor=#a0522d;strokeColor=#6D1F00;" parent="1" source="txctGyOCD1CNv80oOnHS-19" target="txctGyOCD1CNv80oOnHS-45" edge="1">
          <mxGeometry relative="1" as="geometry" />
        </mxCell>
        <mxCell id="txctGyOCD1CNv80oOnHS-49" style="rounded=0;orthogonalLoop=1;jettySize=auto;html=1;endArrow=none;endFill=0;fillColor=#a0522d;strokeColor=#6D1F00;" parent="1" source="txctGyOCD1CNv80oOnHS-19" target="txctGyOCD1CNv80oOnHS-46" edge="1">
          <mxGeometry relative="1" as="geometry" />
        </mxCell>
        <mxCell id="txctGyOCD1CNv80oOnHS-19" value="services" style="ellipse;whiteSpace=wrap;html=1;fillColor=#d5e8d4;gradientColor=#97d077;strokeColor=#82b366;" parent="1" vertex="1">
          <mxGeometry x="374" y="640" width="80" height="60" as="geometry" />
        </mxCell>
        <mxCell id="txctGyOCD1CNv80oOnHS-59" style="rounded=0;orthogonalLoop=1;jettySize=auto;html=1;entryX=0;entryY=1;entryDx=0;entryDy=0;endArrow=none;endFill=0;fillColor=#a0522d;strokeColor=#6D1F00;strokeWidth=2;" parent="1" source="txctGyOCD1CNv80oOnHS-20" target="txctGyOCD1CNv80oOnHS-51" edge="1">
          <mxGeometry relative="1" as="geometry" />
        </mxCell>
        <mxCell id="txctGyOCD1CNv80oOnHS-20" value="Contact" style="ellipse;whiteSpace=wrap;html=1;" parent="1" vertex="1">
          <mxGeometry x="620" y="870" width="55" height="40" as="geometry" />
        </mxCell>
        <mxCell id="txctGyOCD1CNv80oOnHS-56" style="rounded=0;orthogonalLoop=1;jettySize=auto;html=1;entryX=0.5;entryY=1;entryDx=0;entryDy=0;endArrow=none;endFill=0;fillColor=#a0522d;strokeColor=#6D1F00;" parent="1" source="txctGyOCD1CNv80oOnHS-21" target="txctGyOCD1CNv80oOnHS-50" edge="1">
          <mxGeometry relative="1" as="geometry" />
        </mxCell>
        <mxCell id="txctGyOCD1CNv80oOnHS-21" value="habitats" style="ellipse;whiteSpace=wrap;html=1;fillColor=#d5e8d4;gradientColor=#97d077;strokeColor=#82b366;" parent="1" vertex="1">
          <mxGeometry x="483" y="850" width="80" height="60" as="geometry" />
        </mxCell>
        <mxCell id="txctGyOCD1CNv80oOnHS-114" style="rounded=0;orthogonalLoop=1;jettySize=auto;html=1;endArrow=classicThin;endFill=1;dashed=1;" parent="1" source="txctGyOCD1CNv80oOnHS-22" target="txctGyOCD1CNv80oOnHS-14" edge="1">
          <mxGeometry relative="1" as="geometry" />
        </mxCell>
        <mxCell id="txctGyOCD1CNv80oOnHS-115" value="&amp;lt;&amp;lt;loging&amp;gt;&amp;gt;" style="edgeLabel;html=1;align=center;verticalAlign=middle;resizable=0;points=[];" parent="txctGyOCD1CNv80oOnHS-114" vertex="1" connectable="0">
          <mxGeometry x="-0.1346" relative="1" as="geometry">
            <mxPoint as="offset" />
          </mxGeometry>
        </mxCell>
        <mxCell id="txctGyOCD1CNv80oOnHS-22" value="connexion" style="ellipse;whiteSpace=wrap;html=1;fillColor=#d5e8d4;gradientColor=#97d077;strokeColor=#82b366;" parent="1" vertex="1">
          <mxGeometry x="540" y="450" width="80" height="60" as="geometry" />
        </mxCell>
        <mxCell id="txctGyOCD1CNv80oOnHS-25" style="rounded=0;orthogonalLoop=1;jettySize=auto;html=1;endArrow=none;endFill=0;fillColor=#a0522d;strokeColor=#6D1F00;strokeWidth=2;" parent="1" source="txctGyOCD1CNv80oOnHS-19" target="txctGyOCD1CNv80oOnHS-16" edge="1">
          <mxGeometry relative="1" as="geometry" />
        </mxCell>
        <mxCell id="txctGyOCD1CNv80oOnHS-26" style="rounded=0;orthogonalLoop=1;jettySize=auto;html=1;endArrow=none;endFill=0;strokeWidth=2;fillColor=#a0522d;strokeColor=#6D1F00;" parent="1" source="txctGyOCD1CNv80oOnHS-21" target="txctGyOCD1CNv80oOnHS-16" edge="1">
          <mxGeometry relative="1" as="geometry" />
        </mxCell>
        <mxCell id="txctGyOCD1CNv80oOnHS-27" style="rounded=0;orthogonalLoop=1;jettySize=auto;html=1;endArrow=none;endFill=0;fillColor=#a0522d;strokeColor=#6D1F00;strokeWidth=2;" parent="1" source="txctGyOCD1CNv80oOnHS-22" target="txctGyOCD1CNv80oOnHS-16" edge="1">
          <mxGeometry relative="1" as="geometry" />
        </mxCell>
        <mxCell id="txctGyOCD1CNv80oOnHS-35" style="rounded=0;orthogonalLoop=1;jettySize=auto;html=1;entryX=1;entryY=0;entryDx=0;entryDy=0;fillColor=#008a00;strokeColor=#005700;strokeWidth=2;" parent="1" source="txctGyOCD1CNv80oOnHS-11" target="txctGyOCD1CNv80oOnHS-22" edge="1">
          <mxGeometry relative="1" as="geometry">
            <mxPoint x="640" y="580" as="targetPoint" />
          </mxGeometry>
        </mxCell>
        <mxCell id="txctGyOCD1CNv80oOnHS-43" value="visite en petit train" style="ellipse;whiteSpace=wrap;html=1;fontSize=9;" parent="1" vertex="1">
          <mxGeometry x="430" y="595" width="50" height="40" as="geometry" />
        </mxCell>
        <mxCell id="txctGyOCD1CNv80oOnHS-45" value="visite zoo + guide gratuit" style="ellipse;whiteSpace=wrap;html=1;fontSize=9;" parent="1" vertex="1">
          <mxGeometry x="340" y="590" width="60" height="45" as="geometry" />
        </mxCell>
        <mxCell id="txctGyOCD1CNv80oOnHS-46" value="restauration" style="ellipse;whiteSpace=wrap;html=1;fontSize=9;" parent="1" vertex="1">
          <mxGeometry x="328" y="690" width="50" height="40" as="geometry" />
        </mxCell>
        <mxCell id="txctGyOCD1CNv80oOnHS-57" style="rounded=0;orthogonalLoop=1;jettySize=auto;html=1;endArrow=none;endFill=0;fillColor=#a0522d;strokeColor=#6D1F00;" parent="1" source="txctGyOCD1CNv80oOnHS-50" target="txctGyOCD1CNv80oOnHS-55" edge="1">
          <mxGeometry relative="1" as="geometry" />
        </mxCell>
        <mxCell id="txctGyOCD1CNv80oOnHS-50" value="habitat" style="ellipse;whiteSpace=wrap;html=1;fontSize=9;" parent="1" vertex="1">
          <mxGeometry x="500" y="780" width="90" height="40" as="geometry" />
        </mxCell>
        <mxCell id="txctGyOCD1CNv80oOnHS-51" value="formulaire de contact" style="ellipse;whiteSpace=wrap;html=1;fontSize=9;" parent="1" vertex="1">
          <mxGeometry x="740" y="810" width="50" height="40" as="geometry" />
        </mxCell>
        <mxCell id="txctGyOCD1CNv80oOnHS-106" style="rounded=0;orthogonalLoop=1;jettySize=auto;html=1;entryX=0.5;entryY=1;entryDx=0;entryDy=0;endArrow=none;endFill=0;fillColor=#a0522d;strokeColor=#6D1F00;" parent="1" source="txctGyOCD1CNv80oOnHS-52" target="txctGyOCD1CNv80oOnHS-87" edge="1">
          <mxGeometry relative="1" as="geometry" />
        </mxCell>
        <mxCell id="aKgSQbWeLLbsCAJ8le8e-25" style="rounded=0;orthogonalLoop=1;jettySize=auto;html=1;endArrow=classicThin;endFill=1;fillColor=#dae8fc;gradientColor=#7ea6e0;strokeColor=#6c8ebf;strokeWidth=2;" edge="1" parent="1" source="txctGyOCD1CNv80oOnHS-52" target="txctGyOCD1CNv80oOnHS-54">
          <mxGeometry relative="1" as="geometry" />
        </mxCell>
        <mxCell id="txctGyOCD1CNv80oOnHS-52" value="animal" style="ellipse;whiteSpace=wrap;html=1;fontSize=9;fillColor=#d5e8d4;strokeColor=#82b366;gradientColor=#97d077;" parent="1" vertex="1">
          <mxGeometry x="625.5" y="630" width="79" height="50" as="geometry" />
        </mxCell>
        <mxCell id="aKgSQbWeLLbsCAJ8le8e-5" style="rounded=0;orthogonalLoop=1;jettySize=auto;html=1;dashed=1;endArrow=classicThin;endFill=1;fillColor=#1ba1e2;strokeColor=#006EAF;strokeWidth=2;" edge="1" parent="1" source="txctGyOCD1CNv80oOnHS-53" target="txctGyOCD1CNv80oOnHS-52">
          <mxGeometry relative="1" as="geometry" />
        </mxCell>
        <mxCell id="aKgSQbWeLLbsCAJ8le8e-6" value="&amp;lt;&amp;lt;sélection&amp;gt;&amp;gt;" style="edgeLabel;html=1;align=center;verticalAlign=middle;resizable=0;points=[];" vertex="1" connectable="0" parent="aKgSQbWeLLbsCAJ8le8e-5">
          <mxGeometry x="-0.039" y="-1" relative="1" as="geometry">
            <mxPoint as="offset" />
          </mxGeometry>
        </mxCell>
        <mxCell id="aKgSQbWeLLbsCAJ8le8e-13" style="rounded=0;orthogonalLoop=1;jettySize=auto;html=1;endArrow=none;endFill=0;fillColor=#1ba1e2;strokeColor=#006EAF;" edge="1" parent="1" source="txctGyOCD1CNv80oOnHS-53" target="aKgSQbWeLLbsCAJ8le8e-8">
          <mxGeometry relative="1" as="geometry" />
        </mxCell>
        <mxCell id="txctGyOCD1CNv80oOnHS-53" value="nourir" style="ellipse;whiteSpace=wrap;html=1;fontSize=9;" parent="1" vertex="1">
          <mxGeometry x="867" y="555" width="50" height="40" as="geometry" />
        </mxCell>
        <mxCell id="aKgSQbWeLLbsCAJ8le8e-26" style="rounded=0;orthogonalLoop=1;jettySize=auto;html=1;endArrow=classicThin;endFill=1;fillColor=#0050ef;strokeColor=#001DBC;strokeWidth=2;" edge="1" parent="1" source="txctGyOCD1CNv80oOnHS-54" target="txctGyOCD1CNv80oOnHS-52">
          <mxGeometry relative="1" as="geometry" />
        </mxCell>
        <mxCell id="txctGyOCD1CNv80oOnHS-54" value="DASHBOARD" style="ellipse;whiteSpace=wrap;html=1;fontSize=9;fillColor=#dae8fc;gradientColor=#7ea6e0;strokeColor=#6c8ebf;gradientDirection=east;dashed=1;dashPattern=1 1;shadow=1;" parent="1" vertex="1">
          <mxGeometry x="220" y="300" width="70" height="50" as="geometry" />
        </mxCell>
        <mxCell id="txctGyOCD1CNv80oOnHS-58" style="rounded=0;orthogonalLoop=1;jettySize=auto;html=1;endArrow=none;endFill=0;fillColor=#a0522d;strokeColor=#6D1F00;" parent="1" source="txctGyOCD1CNv80oOnHS-55" target="txctGyOCD1CNv80oOnHS-52" edge="1">
          <mxGeometry relative="1" as="geometry" />
        </mxCell>
        <mxCell id="aKgSQbWeLLbsCAJ8le8e-28" value="&lt;font style=&quot;font-size: 8px;&quot;&gt;+1 ds Dashboard au clic visiteur&lt;/font&gt;" style="edgeLabel;html=1;align=center;verticalAlign=middle;resizable=0;points=[];" vertex="1" connectable="0" parent="txctGyOCD1CNv80oOnHS-58">
          <mxGeometry x="0.1263" y="-1" relative="1" as="geometry">
            <mxPoint as="offset" />
          </mxGeometry>
        </mxCell>
        <mxCell id="txctGyOCD1CNv80oOnHS-55" value="tous animaux de habitat" style="ellipse;whiteSpace=wrap;html=1;fontSize=9;" parent="1" vertex="1">
          <mxGeometry x="550" y="720" width="90" height="40" as="geometry" />
        </mxCell>
        <mxCell id="txctGyOCD1CNv80oOnHS-63" style="rounded=0;orthogonalLoop=1;jettySize=auto;html=1;endArrow=none;endFill=0;" parent="1" source="txctGyOCD1CNv80oOnHS-60" target="txctGyOCD1CNv80oOnHS-62" edge="1">
          <mxGeometry relative="1" as="geometry" />
        </mxCell>
        <mxCell id="txctGyOCD1CNv80oOnHS-67" style="rounded=0;orthogonalLoop=1;jettySize=auto;html=1;endArrow=none;endFill=0;fillColor=#a0522d;strokeColor=#6D1F00;" parent="1" source="txctGyOCD1CNv80oOnHS-60" target="txctGyOCD1CNv80oOnHS-66" edge="1">
          <mxGeometry relative="1" as="geometry" />
        </mxCell>
        <mxCell id="txctGyOCD1CNv80oOnHS-60" value="page d&#39;accueil" style="ellipse;whiteSpace=wrap;html=1;fillColor=#d5e8d4;strokeColor=#82b366;gradientColor=#97d077;" parent="1" vertex="1">
          <mxGeometry x="594" y="1000" width="80" height="60" as="geometry" />
        </mxCell>
        <mxCell id="txctGyOCD1CNv80oOnHS-62" value="avis" style="ellipse;whiteSpace=wrap;html=1;fontSize=9;" parent="1" vertex="1">
          <mxGeometry x="765" y="900" width="50" height="40" as="geometry" />
        </mxCell>
        <mxCell id="txctGyOCD1CNv80oOnHS-66" value="horaires" style="ellipse;whiteSpace=wrap;html=1;fontSize=9;" parent="1" vertex="1">
          <mxGeometry x="527" y="970" width="50" height="40" as="geometry" />
        </mxCell>
        <mxCell id="txctGyOCD1CNv80oOnHS-73" style="rounded=0;orthogonalLoop=1;jettySize=auto;html=1;entryX=0;entryY=0.5;entryDx=0;entryDy=0;endArrow=none;endFill=0;dashed=1;fillColor=#f8cecc;gradientColor=#ea6b66;strokeColor=#b85450;" parent="1" source="txctGyOCD1CNv80oOnHS-68" target="txctGyOCD1CNv80oOnHS-71" edge="1">
          <mxGeometry relative="1" as="geometry" />
        </mxCell>
        <mxCell id="txctGyOCD1CNv80oOnHS-68" value="Créer profil" style="ellipse;whiteSpace=wrap;html=1;fillColor=#d5e8d4;gradientColor=#97d077;strokeColor=#82b366;" parent="1" vertex="1">
          <mxGeometry x="210" y="110" width="80" height="60" as="geometry" />
        </mxCell>
        <mxCell id="txctGyOCD1CNv80oOnHS-69" value="&lt;font style=&quot;font-size: 8px;&quot;&gt;Vétérinaire&lt;/font&gt;" style="ellipse;whiteSpace=wrap;html=1;" parent="1" vertex="1">
          <mxGeometry x="330" y="110" width="46" height="40" as="geometry" />
        </mxCell>
        <mxCell id="txctGyOCD1CNv80oOnHS-71" value="&lt;span style=&quot;font-size: 8px;&quot;&gt;Employé&lt;/span&gt;" style="ellipse;whiteSpace=wrap;html=1;" parent="1" vertex="1">
          <mxGeometry x="317" y="160" width="46" height="40" as="geometry" />
        </mxCell>
        <mxCell id="txctGyOCD1CNv80oOnHS-72" style="rounded=0;orthogonalLoop=1;jettySize=auto;html=1;entryX=0.018;entryY=0.416;entryDx=0;entryDy=0;entryPerimeter=0;endArrow=none;endFill=0;dashed=1;fillColor=#f8cecc;gradientColor=#ea6b66;strokeColor=#b85450;" parent="1" source="txctGyOCD1CNv80oOnHS-68" target="txctGyOCD1CNv80oOnHS-69" edge="1">
          <mxGeometry relative="1" as="geometry" />
        </mxCell>
        <mxCell id="txctGyOCD1CNv80oOnHS-74" style="rounded=0;orthogonalLoop=1;jettySize=auto;html=1;entryX=0.234;entryY=0.895;entryDx=0;entryDy=0;entryPerimeter=0;endArrow=none;endFill=0;fillColor=#f8cecc;gradientColor=#ea6b66;strokeColor=#b85450;strokeWidth=2;" parent="1" source="txctGyOCD1CNv80oOnHS-8" target="txctGyOCD1CNv80oOnHS-68" edge="1">
          <mxGeometry relative="1" as="geometry" />
        </mxCell>
        <mxCell id="txctGyOCD1CNv80oOnHS-88" style="rounded=0;orthogonalLoop=1;jettySize=auto;html=1;entryX=0;entryY=0;entryDx=0;entryDy=0;endArrow=none;endFill=0;fillColor=#008a00;strokeColor=#005700;" parent="1" source="txctGyOCD1CNv80oOnHS-75" target="txctGyOCD1CNv80oOnHS-87" edge="1">
          <mxGeometry relative="1" as="geometry" />
        </mxCell>
        <mxCell id="txctGyOCD1CNv80oOnHS-92" style="rounded=0;orthogonalLoop=1;jettySize=auto;html=1;endArrow=none;endFill=0;fillColor=#008a00;strokeColor=#005700;" parent="1" source="txctGyOCD1CNv80oOnHS-75" target="txctGyOCD1CNv80oOnHS-83" edge="1">
          <mxGeometry relative="1" as="geometry" />
        </mxCell>
        <mxCell id="txctGyOCD1CNv80oOnHS-104" style="rounded=0;orthogonalLoop=1;jettySize=auto;html=1;endArrow=none;endFill=0;fillColor=#008a00;strokeColor=#005700;" parent="1" source="txctGyOCD1CNv80oOnHS-75" target="txctGyOCD1CNv80oOnHS-78" edge="1">
          <mxGeometry relative="1" as="geometry" />
        </mxCell>
        <mxCell id="aKgSQbWeLLbsCAJ8le8e-24" style="rounded=0;orthogonalLoop=1;jettySize=auto;html=1;endArrow=classicThin;endFill=1;strokeWidth=2;fillColor=#0050ef;strokeColor=#001DBC;" edge="1" parent="1" source="txctGyOCD1CNv80oOnHS-75" target="txctGyOCD1CNv80oOnHS-54">
          <mxGeometry relative="1" as="geometry" />
        </mxCell>
        <mxCell id="txctGyOCD1CNv80oOnHS-75" value="rapport vétérinaire" style="ellipse;whiteSpace=wrap;html=1;fillColor=#d5e8d4;strokeColor=#82b366;gradientColor=#97d077;" parent="1" vertex="1">
          <mxGeometry x="460" y="280" width="80" height="60" as="geometry" />
        </mxCell>
        <mxCell id="txctGyOCD1CNv80oOnHS-78" value="&lt;font style=&quot;font-size: 5px;&quot;&gt;grammage de nourriture&lt;/font&gt;" style="ellipse;whiteSpace=wrap;html=1;" parent="1" vertex="1">
          <mxGeometry x="580" y="240" width="36" height="40" as="geometry" />
        </mxCell>
        <mxCell id="txctGyOCD1CNv80oOnHS-83" value="&lt;font style=&quot;font-size: 5px;&quot;&gt;détail de l&#39;animal (facultatif)&lt;/font&gt;" style="ellipse;whiteSpace=wrap;html=1;" parent="1" vertex="1">
          <mxGeometry x="490" y="170" width="50" height="40" as="geometry" />
        </mxCell>
        <mxCell id="txctGyOCD1CNv80oOnHS-84" value="&lt;span style=&quot;font-size: 6px;&quot;&gt;avis&amp;nbsp; sur habitat&lt;/span&gt;" style="ellipse;whiteSpace=wrap;html=1;" parent="1" vertex="1">
          <mxGeometry x="396" y="230" width="36" height="40" as="geometry" />
        </mxCell>
        <mxCell id="txctGyOCD1CNv80oOnHS-86" value="&lt;span style=&quot;font-size: 6px;&quot;&gt;date&lt;/span&gt;" style="ellipse;whiteSpace=wrap;html=1;" parent="1" vertex="1">
          <mxGeometry x="445" y="180" width="36" height="40" as="geometry" />
        </mxCell>
        <mxCell id="txctGyOCD1CNv80oOnHS-87" value="&lt;font style=&quot;font-size: 6px;&quot;&gt;L&#39;état de l’animal&lt;/font&gt;" style="ellipse;whiteSpace=wrap;html=1;" parent="1" vertex="1">
          <mxGeometry x="625" y="370" width="36" height="40" as="geometry" />
        </mxCell>
        <mxCell id="txctGyOCD1CNv80oOnHS-89" style="rounded=0;orthogonalLoop=1;jettySize=auto;html=1;entryX=0.5;entryY=1;entryDx=0;entryDy=0;endArrow=none;endFill=0;fillColor=#008a00;strokeColor=#005700;" parent="1" source="txctGyOCD1CNv80oOnHS-75" target="txctGyOCD1CNv80oOnHS-86" edge="1">
          <mxGeometry relative="1" as="geometry" />
        </mxCell>
        <mxCell id="txctGyOCD1CNv80oOnHS-91" style="rounded=0;orthogonalLoop=1;jettySize=auto;html=1;entryX=0.935;entryY=0.785;entryDx=0;entryDy=0;endArrow=none;endFill=0;entryPerimeter=0;fillColor=#008a00;strokeColor=#005700;" parent="1" source="txctGyOCD1CNv80oOnHS-75" target="txctGyOCD1CNv80oOnHS-84" edge="1">
          <mxGeometry relative="1" as="geometry" />
        </mxCell>
        <mxCell id="txctGyOCD1CNv80oOnHS-94" value="&lt;font style=&quot;font-size: 5px;&quot;&gt;nourriture proposée&lt;/font&gt;" style="ellipse;whiteSpace=wrap;html=1;" parent="1" vertex="1">
          <mxGeometry x="557" y="180" width="36" height="40" as="geometry" />
        </mxCell>
        <mxCell id="txctGyOCD1CNv80oOnHS-95" style="rounded=0;orthogonalLoop=1;jettySize=auto;html=1;endArrow=none;endFill=0;fillColor=#008a00;strokeColor=#005700;" parent="1" source="txctGyOCD1CNv80oOnHS-75" target="txctGyOCD1CNv80oOnHS-94" edge="1">
          <mxGeometry relative="1" as="geometry" />
        </mxCell>
        <mxCell id="txctGyOCD1CNv80oOnHS-105" style="rounded=0;orthogonalLoop=1;jettySize=auto;html=1;entryX=0.05;entryY=0.667;entryDx=0;entryDy=0;entryPerimeter=0;endArrow=none;endFill=0;fillColor=#f8cecc;gradientColor=#ea6b66;strokeColor=#b85450;strokeWidth=2;" parent="1" source="txctGyOCD1CNv80oOnHS-8" target="txctGyOCD1CNv80oOnHS-75" edge="1">
          <mxGeometry relative="1" as="geometry" />
        </mxCell>
        <mxCell id="txctGyOCD1CNv80oOnHS-111" style="rounded=0;orthogonalLoop=1;jettySize=auto;html=1;endArrow=classicThin;endFill=1;dashed=1;fillColor=#f8cecc;strokeColor=#b85450;gradientColor=#ea6b66;strokeWidth=2;" parent="1" source="txctGyOCD1CNv80oOnHS-8" target="txctGyOCD1CNv80oOnHS-21" edge="1">
          <mxGeometry relative="1" as="geometry" />
        </mxCell>
        <mxCell id="txctGyOCD1CNv80oOnHS-112" value="&amp;lt;&amp;lt;Modifier&amp;gt;&amp;gt;" style="edgeLabel;html=1;align=center;verticalAlign=middle;resizable=0;points=[];" parent="txctGyOCD1CNv80oOnHS-111" vertex="1" connectable="0">
          <mxGeometry x="-0.0217" y="-1" relative="1" as="geometry">
            <mxPoint as="offset" />
          </mxGeometry>
        </mxCell>
        <mxCell id="txctGyOCD1CNv80oOnHS-113" style="rounded=0;orthogonalLoop=1;jettySize=auto;html=1;fillColor=#a0522d;strokeColor=#6D1F00;strokeWidth=2;" parent="1" source="txctGyOCD1CNv80oOnHS-60" target="txctGyOCD1CNv80oOnHS-16" edge="1">
          <mxGeometry relative="1" as="geometry" />
        </mxCell>
        <mxCell id="aKgSQbWeLLbsCAJ8le8e-4" style="rounded=0;orthogonalLoop=1;jettySize=auto;html=1;entryX=0.988;entryY=0.665;entryDx=0;entryDy=0;entryPerimeter=0;endArrow=none;endFill=0;strokeWidth=2;fillColor=#1ba1e2;strokeColor=#006EAF;" edge="1" parent="1" source="txctGyOCD1CNv80oOnHS-9" target="txctGyOCD1CNv80oOnHS-53">
          <mxGeometry relative="1" as="geometry" />
        </mxCell>
        <mxCell id="aKgSQbWeLLbsCAJ8le8e-8" value="&lt;font style=&quot;font-size: 8px;&quot;&gt;consomation&lt;/font&gt;" style="ellipse;whiteSpace=wrap;html=1;fontSize=9;" vertex="1" parent="1">
          <mxGeometry x="860" y="470" width="50" height="40" as="geometry" />
        </mxCell>
        <mxCell id="aKgSQbWeLLbsCAJ8le8e-9" value="&lt;font style=&quot;font-size: 8px;&quot;&gt;date&lt;/font&gt;" style="ellipse;whiteSpace=wrap;html=1;fontSize=9;" vertex="1" parent="1">
          <mxGeometry x="770" y="490" width="40" height="30" as="geometry" />
        </mxCell>
        <mxCell id="aKgSQbWeLLbsCAJ8le8e-10" value="&lt;font style=&quot;font-size: 8px;&quot;&gt;heure&lt;/font&gt;" style="ellipse;whiteSpace=wrap;html=1;fontSize=9;" vertex="1" parent="1">
          <mxGeometry x="780" y="430" width="40" height="30" as="geometry" />
        </mxCell>
        <mxCell id="aKgSQbWeLLbsCAJ8le8e-11" value="&lt;font style=&quot;font-size: 7px;&quot;&gt;Nourriture sélectionée&lt;/font&gt;" style="ellipse;whiteSpace=wrap;html=1;fontSize=9;" vertex="1" parent="1">
          <mxGeometry x="820" y="390" width="47" height="30" as="geometry" />
        </mxCell>
        <mxCell id="aKgSQbWeLLbsCAJ8le8e-12" value="&lt;font style=&quot;font-size: 8px;&quot;&gt;quantité&lt;/font&gt;" style="ellipse;whiteSpace=wrap;html=1;fontSize=9;" vertex="1" parent="1">
          <mxGeometry x="890" y="370" width="40" height="30" as="geometry" />
        </mxCell>
        <mxCell id="aKgSQbWeLLbsCAJ8le8e-14" style="rounded=0;orthogonalLoop=1;jettySize=auto;html=1;endArrow=none;endFill=0;fillColor=#1ba1e2;strokeColor=#006EAF;" edge="1" parent="1" source="aKgSQbWeLLbsCAJ8le8e-8" target="aKgSQbWeLLbsCAJ8le8e-9">
          <mxGeometry relative="1" as="geometry" />
        </mxCell>
        <mxCell id="aKgSQbWeLLbsCAJ8le8e-15" style="rounded=0;orthogonalLoop=1;jettySize=auto;html=1;endArrow=none;endFill=0;fillColor=#1ba1e2;strokeColor=#006EAF;" edge="1" parent="1" source="aKgSQbWeLLbsCAJ8le8e-8" target="aKgSQbWeLLbsCAJ8le8e-10">
          <mxGeometry relative="1" as="geometry" />
        </mxCell>
        <mxCell id="aKgSQbWeLLbsCAJ8le8e-16" style="rounded=0;orthogonalLoop=1;jettySize=auto;html=1;endArrow=none;endFill=0;fillColor=#1ba1e2;strokeColor=#006EAF;" edge="1" parent="1" source="aKgSQbWeLLbsCAJ8le8e-8" target="aKgSQbWeLLbsCAJ8le8e-11">
          <mxGeometry relative="1" as="geometry" />
        </mxCell>
        <mxCell id="aKgSQbWeLLbsCAJ8le8e-17" style="rounded=0;orthogonalLoop=1;jettySize=auto;html=1;endArrow=none;endFill=0;fillColor=#1ba1e2;strokeColor=#006EAF;" edge="1" parent="1" source="aKgSQbWeLLbsCAJ8le8e-8" target="aKgSQbWeLLbsCAJ8le8e-12">
          <mxGeometry relative="1" as="geometry" />
        </mxCell>
        <mxCell id="aKgSQbWeLLbsCAJ8le8e-18" style="rounded=0;orthogonalLoop=1;jettySize=auto;html=1;entryX=0.037;entryY=0.708;entryDx=0;entryDy=0;entryPerimeter=0;dashed=1;endArrow=classicThin;endFill=1;fillColor=#1ba1e2;strokeColor=#006EAF;strokeWidth=2;" edge="1" parent="1" source="txctGyOCD1CNv80oOnHS-52" target="txctGyOCD1CNv80oOnHS-53">
          <mxGeometry relative="1" as="geometry" />
        </mxCell>
        <mxCell id="aKgSQbWeLLbsCAJ8le8e-23" style="rounded=0;orthogonalLoop=1;jettySize=auto;html=1;endArrow=classicThin;endFill=1;fillColor=#0050ef;strokeColor=#001DBC;strokeWidth=2;" edge="1" parent="1" source="txctGyOCD1CNv80oOnHS-54" target="txctGyOCD1CNv80oOnHS-75">
          <mxGeometry relative="1" as="geometry" />
        </mxCell>
      </root>
    </mxGraphModel>
  </diagram>
</mxfile>
